PathFileType	4	(X/Y/Z)	0_coords_data.trc
DataRate	CameraRate	NumFrames	NumMarkers	Units	OrigDataRate	OrigDataStartFrame	OrigNumFrames
30.0	30.0	9	21	m	30.0	1	62
Frame#	Time	THUMB_TIP	THUMB_IP	THUMB_MCP	THUMB_CMC	INDEX_TIP	INDEX_DIP	INDEX_PIP	INDEX_MCP	MIDDLE_TIP	MIDDLE_DIP	MIDDLE_PIP	MIDDLE_MCP	RING_TIP	RING_DIP	RING_PIP	RING_MCP	PINKY_TIP	PINKY_DIP	PINKY_PIP	PINKY_MCP	WRIST
X1	Y1	Z1	X2	Y2	Z2	X3	Y3	Z3	X4	Y4	Z4	X5	Y5	Z5	X6	Y6	Z6	X7	Y7	Z7	X8	Y8	Z8	X9	Y9	Z9	X10	Y10	Z10	X11	Y11	Z11	X12	Y12	Z12	X13	Y13	Z13	X14	Y14	Z14	X15	Y15	Z15	X16	Y16	Z16	X17	Y17	Z17	X18	Y18	Z18	X19	Y19	Z19	X20	Y20	Z20	X21	Y21	Z21
0	0.0	-0.009978249549865722	-0.11958999633789062	0.9917260131835938	-0.007655109882354736	-0.0931312026977539	1.0050900268554688	-0.01484939956665039	-0.07651380157470702	1.032239990234375	-0.01557900047302246	-0.040243900299072266	1.0481800537109376	-0.008204520225524902	-0.0516510009765625	1.0248900146484374	0.004794690132141113	-0.054241401672363285	1.0108099975585938	0.005887110233306885	-0.06063880157470703	0.9860969848632812	-0.03801070022583008	-0.06021189880371094	0.9911320190429688	-0.002122529983520508	-0.037373199462890624	1.0243599853515626	0.006963129997253418	-0.03579100036621094	1.0140800170898439	0.01189840030670166	-0.03742020034790039	0.9845800170898438	-0.03613570022583008	-0.03494919967651367	0.9832780151367188	-0.004779819965362549	-0.02071109962463379	1.0271099853515624	0.006774849891662597	-0.017761999130249024	1.02027001953125	0.019442600250244142	-0.016065000534057617	0.9947349853515625	-0.026812299728393555	-0.0108503999710083	0.9845780029296874	-0.008519100189208985	-0.002321680068969726	1.02693994140625	0.005488500118255615	-0.001091850042343139	1.0190800170898437	0.01375469970703125	0.004350490093231201	0.9992880249023437	-0.02046649932861328	0.012800800323486327	0.9897000122070313	-0.03895009994506836	-0.009994210243225098	1.0673699951171876
1	0.03333333333333333	-0.009676030158996582	-0.119697998046875	0.99177099609375	-0.0075362401008605955	-0.09316400146484374	1.0051099853515626	-0.014854700088500976	-0.07656659698486327	1.0321700439453125	-0.01572659969329834	-0.04017689895629883	1.04818994140625	-0.008565500259399414	-0.0516254997253418	1.0250699462890625	0.004644050121307373	-0.0541869010925293	1.01075	0.005532949924468994	-0.06076620101928711	0.9859439697265625	-0.03807440185546875	-0.06032509994506836	0.9909520263671875	-0.002397629976272583	-0.037412399291992186	1.0243499755859375	0.006961130142211914	-0.03567010116577148	1.0141799926757813	0.011718299865722656	-0.03743479919433594	0.9845479736328125	-0.036413299560546876	-0.03503910064697266	0.9831510009765625	-0.004895170211791992	-0.020737600326538087	1.0269100341796875	0.006562359809875488	-0.017768499374389648	1.0200800170898439	0.019243900299072265	-0.016045900344848634	0.994656005859375	-0.027111600875854493	-0.010924300193786622	0.9843870239257813	-0.008782770156860352	-0.002490600109100342	1.026719970703125	0.005229030132293701	-0.001114529967308044	1.0188499755859375	0.013476799964904786	0.004370510101318359	0.999093017578125	-0.02096809959411621	0.012774800300598145	0.9895499877929688	-0.0392328987121582	-0.009971850395202637	1.067
2	0.06666666666666667	-0.009888099670410157	-0.11960600280761718	0.9917570190429688	-0.007719029903411865	-0.09306620025634765	1.0049600219726562	-0.015076800346374512	-0.07643710327148437	1.032050048828125	-0.01570759963989258	-0.04013980102539062	1.0480799560546874	-0.008592379570007325	-0.051389801025390626	1.0253499755859374	0.004557869911193848	-0.05406100082397461	1.0106199951171875	0.005368450164794922	-0.06055210113525391	0.9856909790039062	-0.03836180114746094	-0.06011920166015625	0.9908200073242187	-0.002668309926986694	-0.037397701263427736	1.02406005859375	0.006706890106201172	-0.03560160064697265	1.013760009765625	0.011435999870300292	-0.03739170074462891	0.983989013671875	-0.036562198638916014	-0.03489250183105469	0.9830380249023437	-0.0051862702369689945	-0.02067770004272461	1.0269000244140625	0.006297619819641114	-0.017653900146484373	1.0199600219726563	0.018974599838256837	-0.015944199562072756	0.99435498046875	-0.02730179977416992	-0.010777099609375	0.9842739868164062	-0.009065919876098633	-0.002620019912719726	1.02656005859375	0.004981249809265137	-0.0010572899580001832	1.0186400146484376	0.013323200225830079	0.004552629947662354	0.9989169921875	-0.021001800537109375	0.012881500244140625	0.989406005859375	-0.03940679931640625	-0.009882719993591308	1.0667900390625
3	0.1	-0.010195300102233887	-0.11947200012207031	0.9918350219726563	-0.007875529766082764	-0.09279799652099609	1.0048599853515625	-0.015243100166320802	-0.07619049835205079	1.032	-0.016022300720214842	-0.039886600494384764	1.0479599609375	-0.008871279716491699	-0.051277599334716796	1.0249100341796875	0.004342360019683838	-0.05378020095825195	1.0104000244140625	0.005258979797363281	-0.060290401458740234	0.9857150268554687	-0.038512100219726564	-0.059899200439453126	0.990780029296875	-0.0027452499866485592	-0.03694540023803711	1.0241500244140624	0.006501420021057129	-0.035361099243164065	1.0135599975585938	0.011333600044250488	-0.037012298583984374	0.9840770263671875	-0.03672740173339844	-0.03460179901123047	0.9830130004882812	-0.00482804012298584	-0.020397499084472658	1.026800048828125	0.006151569843292236	-0.017384000778198242	1.0199299926757812	0.018873899459838868	-0.015687999725341798	0.9942459716796875	-0.027468700408935547	-0.010493200302124023	0.98422900390625	-0.009093839645385743	-0.002027729988098144	1.0265699462890625	0.0048161702156066894	-0.000703595995903015	1.0186500244140626	0.013139399528503418	0.004774580001831055	0.9988389892578124	-0.021260499954223633	0.01323490047454834	0.9894819946289063	-0.039782001495361326	-0.00965701961517334	1.0671600341796874
4	0.13333333333333333	-0.01020810031890869	-0.11936100006103516	0.9921220092773437	-0.007915840148925782	-0.0926510009765625	1.0049400024414064	-0.015368200302124024	-0.07600080108642578	1.032	-0.016038799285888673	-0.03969820022583008	1.0479000244140626	-0.009252829551696777	-0.051044898986816405	1.025550048828125	0.004223579883575439	-0.05354779815673828	1.0105700073242188	0.00530256986618042	-0.0599828987121582	0.9858309936523437	-0.038600700378417965	-0.059647701263427735	0.9908699951171875	-0.002771450042724609	-0.03680030059814453	1.0240899658203124	0.006358270168304443	-0.03514339828491211	1.0139199829101562	0.011275500297546386	-0.036835800170898436	0.9843989868164063	-0.03682669830322265	-0.03435589981079101	0.983052001953125	-0.005007500171661377	-0.020184000015258788	1.02675	0.0061200098991394045	-0.017183900833129883	1.0199000244140626	0.018707199096679686	-0.0154375	0.9942960205078125	-0.027578100204467774	-0.010210100173950196	0.9841859741210938	-0.009302390098571778	-0.001876950025558471	1.0266199951171875	0.00447406005859375	-0.000565093994140625	1.0185700073242188	0.013031499862670898	0.00501752996444702	0.9987849731445313	-0.02135930061340332	0.01344219970703125	0.9893309936523438	-0.03959280014038086	-0.009469590187072753	1.06697998046875
5	0.16666666666666666	-0.010084300041198731	-0.11913099670410156	0.99227099609375	-0.007920340061187744	-0.09237249755859375	1.0050900268554688	-0.015363699913024902	-0.07569779968261718	1.0318399658203126	-0.016136199951171874	-0.03940610122680664	1.0479599609375	-0.00892768955230713	-0.05060530090332031	1.02527001953125	0.00409954023361206	-0.053286800384521486	1.010489990234375	0.005025139808654785	-0.0598109016418457	0.9857860107421875	-0.038699600219726564	-0.05934619903564453	0.9908699951171875	-0.0027457399368286135	-0.036639301300048825	1.0235399780273438	0.006160970211029053	-0.03487020111083984	1.0136300048828124	0.011130800247192383	-0.03658819961547852	0.9839019775390625	-0.036762298583984374	-0.034125	0.98293798828125	-0.005156479835510254	-0.01997050094604492	1.0268199462890626	0.00597967004776001	-0.016894599914550782	1.0200399780273437	0.018535600662231446	-0.015125200271606446	0.9942119750976562	-0.027712200164794924	-0.009955780029296875	0.9842239990234375	-0.009399800300598145	-0.001693019986152649	1.02668994140625	0.004514729976654053	-0.00022889499366283403	1.0187899780273437	0.012970600128173828	0.005283360004425049	0.9989229736328125	-0.021623500823974608	0.013718199729919434	0.9894240112304687	-0.039689498901367186	-0.009289219856262207	1.067010009765625
6	0.2	-0.010576000213623047	-0.11884999847412109	0.9922789916992187	-0.008228269577026368	-0.09209259796142578	1.0049600219726562	-0.015664299964904784	-0.07542250061035156	1.0318199462890625	-0.016391899108886717	-0.03915019989013672	1.04797998046875	-0.009770110130310058	-0.05066400146484375	1.025050048828125	0.0038887100219726564	-0.05301390075683594	1.0104000244140625	0.004960820198059082	-0.05946599960327149	0.985708984375	-0.0389099006652832	-0.058974300384521484	0.9907620239257813	-0.0033067200183868406	-0.03622140121459961	1.0242099609375	0.006029679775238037	-0.03459410095214844	1.0136799926757813	0.010845100402832031	-0.03632709884643555	0.9839130249023438	-0.03705929946899414	-0.03370050048828125	0.983	-0.005475100040435791	-0.01965060043334961	1.0268199462890626	0.005845510005950928	-0.016654699325561524	1.019989990234375	0.01842099952697754	-0.014858599662780761	0.9942410278320313	-0.027788000106811525	-0.009611860275268554	0.9841939697265625	-0.009642339706420899	-0.0016007200479507442	1.0268599853515625	0.00421619987487793	-3.650639951229e-05	1.0188599853515625	0.012816200256347656	0.005620669841766357	0.9990009765625	-0.021699499130249024	0.014046899795532227	0.9894569702148438	-0.039967098236083985	-0.009005009651184082	1.066969970703125
7	0.23333333333333334	-0.010739700317382812	-0.11861399841308594	0.9922689819335937	-0.008391550064086914	-0.09190489959716797	1.0049500122070312	-0.015847000122070312	-0.07525170135498047	1.031719970703125	-0.016574499130249023	-0.03900239944458008	1.0478699951171875	-0.009877659797668458	-0.05043479919433594	1.024699951171875	0.003801239967346191	-0.052787799835205075	1.0103800048828124	0.004608809947967529	-0.05926679992675781	0.9853579711914062	-0.039140300750732424	-0.05869699859619141	0.9906409912109375	-0.0032673799991607662	-0.03614609909057617	1.0234299926757813	0.005834420204162597	-0.03443519973754883	1.01352001953125	0.010684900283813477	-0.036087299346923826	0.9840430297851562	-0.03720019912719726	-0.033452098846435546	0.982926025390625	-0.005711550235748291	-0.019453100204467774	1.026550048828125	0.0056147599220275875	-0.01644099998474121	1.0199099731445314	0.018319400787353515	-0.014679100036621094	0.99425	-0.02789699935913086	-0.009349570274353028	0.9841329956054687	-0.00968159008026123	-0.001184010028839111	1.02675	0.004099679946899414	0.000175762996077537	1.01872998046875	0.012686699867248534	0.005816559791564941	0.9988939819335938	-0.0217539005279541	0.014310799598693847	0.9893980102539063	-0.040179500579833986	-0.008817680358886719	1.0671400146484376
8	0.26666666666666666	-0.010151700019836426	-0.11851100158691406	0.9923179931640626	-0.0080760498046875	-0.09177469635009766	1.004969970703125	-0.015853599548339845	-0.07511139678955078	1.031699951171875	-0.01671109962463379	-0.03881100082397461	1.04775	-0.00992220973968506	-0.050143001556396484	1.0251500244140626	0.003633599996566772	-0.05267689895629883	1.0102899780273438	0.0046201801300048825	-0.059134998321533204	0.98556298828125	-0.03916180038452149	-0.0586859016418457	0.990666015625	-0.003589900016784668	-0.03603300094604492	1.02372998046875	0.0057273502349853515	-0.03428499984741211	1.0134400024414063	0.010612600326538086	-0.035950801849365235	0.9840170288085938	-0.03726259994506836	-0.03339120101928711	0.9827930297851563	-0.004845310211181641	-0.019675500869750978	1.02577001953125	0.0053812599182128905	-0.01632780075073242	1.0198599853515624	0.018142900466918944	-0.014525799751281739	0.9940449829101563	-0.02808919906616211	-0.009255370140075684	0.9840780029296875	-0.009796699523925782	-0.001049010038375854	1.02681005859375	0.003928270101547241	0.000281630992889404	1.018739990234375	0.0125024995803833	0.00594871997833252	0.9989660034179687	-0.021875200271606447	0.01436769962310791	0.9893400268554687	-0.04030160140991211	-0.0086699800491333	1.066969970703125
